<svg width="200" height="45" viewBox="0 0 200 45" fill="none" xmlns="http://www.w3.org/2000/svg">
<path fill-rule="evenodd" clip-rule="evenodd" d="M139.527 36.6H150.273C161.019 36.6 169.259 28.5621 169.259 18.7692C169.259 12.2757 164.54 8.52 158.078 8.52H148.422L148.167 9.3624C151.398 9.3624 151.435 9.924 150.781 11.9949L144.102 33.1251C143.448 35.196 142.541 35.7576 139.782 35.7576L139.527 36.6ZM165.121 17.9619C165.121 26.2455 158.659 35.1609 150.382 35.1609C148.204 35.1609 147.478 34.7046 147.732 33.9675L155.065 11.0121C155.319 10.1697 156.626 9.924 158.223 9.924C162.289 9.924 165.121 12.7671 165.121 17.9619ZM10.6027 9.25311H14.5542L24.9612 36.3H21.1662L18.7014 29.5288H6.37728L3.91247 36.3H0.273926L10.6027 9.25311ZM17.5668 26.5026L12.598 12.3928H12.5198L7.55101 26.5026H17.5668ZM31.5949 9.25311H28.0737V36.3H31.5949V9.25311ZM37.3964 9.25311H41.7L55.6673 31.458H55.7456V9.25311H59.2667V36.3H54.9631L40.9958 14.0951H40.9175V36.3H37.3964V9.25311ZM98.8154 17.0078H95.6854V36.3H98.8154V17.0078ZM99.1283 9.63141H95.3724V13.2629H99.1283V9.63141ZM129.969 36.8674C127.935 36.8674 126.187 36.4261 124.727 35.5435C123.266 34.6608 122.157 33.4503 121.401 31.912C120.645 30.3484 120.266 28.5831 120.266 26.6161C120.266 24.5734 120.658 22.7829 121.44 21.2445C122.249 19.7062 123.383 18.5209 124.844 17.6887C126.305 16.8565 128.013 16.4404 129.969 16.4404C131.873 16.4404 133.516 16.8439 134.899 17.6509C136.307 18.4327 137.377 19.5423 138.107 20.9797C138.837 22.392 139.202 24.0438 139.202 25.9352C139.202 26.7422 139.189 27.2466 139.163 27.4483H123.556C123.583 28.5755 123.817 29.6473 124.257 30.6637C124.727 31.7228 125.444 32.5929 126.409 33.2738C127.374 33.9295 128.574 34.2573 130.008 34.2573C131.208 34.2573 132.212 34.043 133.021 33.6142C133.855 33.1855 134.481 32.6812 134.899 32.1011C135.316 31.4959 135.603 30.9159 135.76 30.361H138.929C138.381 32.3029 137.351 33.879 135.838 35.0895C134.351 36.2748 132.395 36.8674 129.969 36.8674ZM124.335 22.0389C123.875 22.8614 123.618 23.7819 123.564 24.8004H135.877C135.877 23.7412 135.629 22.7703 135.134 21.8876C134.638 21.005 133.921 20.3115 132.982 19.8071C132.069 19.3027 131.012 19.0505 129.813 19.0505C128.639 19.0505 127.57 19.3153 126.604 19.8449C125.639 20.3745 124.883 21.1058 124.335 22.0389ZM101.448 17.0078H104.891L110.447 33.2738H110.486L115.963 17.0078H119.328L112.168 36.3H108.608L101.448 17.0078ZM90.3286 36.4891C89.2592 36.4891 88.3593 36.3378 87.629 36.0352C86.9248 35.7326 86.364 35.1904 85.9467 34.4086C85.5554 33.6268 85.3598 32.5298 85.3598 31.1176V19.6558H82.4255V17.0078H85.3598V10.5771H88.4897V17.0078H92.4022V19.6558H88.4897V31.2689C88.4897 31.975 88.5549 32.5046 88.6854 32.8577C88.8158 33.2107 89.0375 33.4629 89.3505 33.6142C89.6896 33.7655 90.159 33.8412 90.7589 33.8412C91.2023 33.8412 91.7501 33.8034 92.4022 33.7277V36.3C91.6458 36.4261 90.9546 36.4891 90.3286 36.4891ZM64.7924 35.3165C65.9922 36.3252 67.5962 36.8296 69.6046 36.8296C71.2217 36.8296 72.6041 36.5396 73.7518 35.9596C74.8994 35.3795 75.8123 34.5473 76.4905 33.4629H76.5687C76.673 34.5978 76.9599 35.3921 77.4294 35.8461C77.925 36.2748 78.6292 36.4891 79.5421 36.4891C79.9855 36.4891 80.4942 36.4261 81.068 36.3V34.1817C80.9115 34.1817 80.755 34.1943 80.5985 34.2195C80.2333 34.2195 79.9725 34.0429 79.816 33.6899C79.6595 33.3116 79.5813 32.7316 79.5813 31.9498V22.682C79.5813 20.488 78.9161 18.8992 77.5859 17.9157C76.2818 16.9322 74.5864 16.4404 72.4998 16.4404C69.7089 16.4404 67.6223 17.033 66.2399 18.2183C64.8576 19.4036 64.1142 20.9924 64.0099 22.9846H67.2963C67.3745 22.0263 67.5702 21.2698 67.8832 20.7149C68.1961 20.1349 68.7048 19.7188 69.409 19.4666C70.1393 19.2144 71.1304 19.0884 72.3824 19.0884C73.8952 19.0884 74.9646 19.3532 75.5906 19.8827C76.2166 20.3871 76.5296 21.068 76.5296 21.9254C76.5296 22.4802 76.3861 22.9216 76.0992 23.2494C75.8384 23.5773 75.4341 23.842 74.8864 24.0438C74.3647 24.2203 73.6083 24.4095 72.6172 24.6112C72.2781 24.6617 71.926 24.7247 71.5608 24.8004C69.6307 25.1282 68.0657 25.5191 66.8659 25.973C65.6661 26.427 64.7271 27.0826 64.049 27.9401C63.3708 28.7975 63.0318 29.9323 63.0318 31.3446C63.0318 32.9838 63.6186 34.3077 64.7924 35.3165ZM73.3214 33.6142C72.3303 33.9925 71.1957 34.1817 69.9176 34.1817C68.6656 34.1817 67.7527 33.9295 67.1789 33.4251C66.6051 32.9207 66.3182 32.1768 66.3182 31.1933C66.3182 30.4619 66.5008 29.8567 66.8659 29.3775C67.2572 28.8984 67.844 28.4949 68.6265 28.167C69.409 27.8392 70.4784 27.5492 71.8347 27.297C73.0606 27.07 74.0778 26.8304 74.8864 26.5783C75.721 26.3261 76.2687 26.0613 76.5296 25.7839V28.8479C76.5296 30.0332 76.2427 31.0293 75.6688 31.8363C75.1211 32.6433 74.3386 33.236 73.3214 33.6142ZM199.305 19.9275C199.305 18.3831 198.579 17.5056 197.526 17.5056C196.619 17.5056 196.22 18.1725 196.22 18.8745C196.22 19.3566 196.419 19.873 196.641 20.4484C196.921 21.1718 197.236 21.9882 197.236 22.9461C197.236 27.123 193.134 34.4589 189.794 34.4589C188.197 34.4589 187.616 33.09 187.616 31.2999C187.616 27.3687 190.956 21.9633 194.441 18.1725L193.824 17.5758L193.642 17.7513C193.388 17.9268 193.134 18.1023 192.589 18.1023C192.144 18.1023 191.42 18.001 190.681 17.8978C189.914 17.7905 189.132 17.6811 188.632 17.6811C187.362 17.6811 186.599 18.4533 185.946 19.7169C185.474 20.6646 185.22 21.507 185.22 22.0686C185.22 22.9461 185.728 23.262 186.2 23.262C186.781 23.262 187.216 22.8057 187.216 22.2441C187.216 21.7913 186.975 21.4974 186.741 21.2129C186.521 20.946 186.309 20.6874 186.309 20.3136C186.309 19.9275 186.563 19.6467 187.071 19.6467C187.53 19.6467 188.303 19.8348 189.068 20.0209C189.818 20.2033 190.561 20.3838 190.992 20.3838H191.028C187.471 24.1395 184.058 28.5972 184.058 32.5635C184.058 35.4768 185.51 37.0914 187.87 37.0914C193.315 37.0914 199.305 26.0349 199.305 19.9275ZM175.362 34.845C177.504 34.845 179.537 32.6688 181.352 29.1237H182.15C180.118 33.9675 177.213 37.0914 173.765 37.0914C170.897 37.0914 169.009 35.1609 169.009 31.686C169.009 25.719 174.273 17.4705 179.609 17.4705C181.751 17.4705 183.094 18.7692 183.094 20.6646C183.094 24.5958 177.976 27.8952 172.966 28.6323C172.748 29.6502 172.639 30.633 172.639 31.4754C172.639 33.7569 173.728 34.845 175.362 34.845ZM179.391 18.8043C176.814 18.8043 174.345 23.3673 173.256 27.5091C177.141 26.5614 180.589 23.6832 180.589 20.4189C180.589 19.401 180.299 18.8043 179.391 18.8043Z" fill="black"/>
</svg>
