<svg width="16" height="17" viewBox="0 0 16 17" fill="none" xmlns="http://www.w3.org/2000/svg">
<path d="M7.99984 4.7C8.36803 4.7 8.6665 4.40153 8.6665 4.03334C8.6665 3.66515 8.36803 3.36667 7.99984 3.36667C7.63165 3.36667 7.33317 3.66515 7.33317 4.03334C7.33317 4.40153 7.63165 4.7 7.99984 4.7Z" stroke="white" stroke-width="1.2" stroke-linecap="round" stroke-linejoin="round"/>
<path d="M12.6665 4.7C13.0347 4.7 13.3332 4.40153 13.3332 4.03334C13.3332 3.66515 13.0347 3.36667 12.6665 3.36667C12.2983 3.36667 11.9998 3.66515 11.9998 4.03334C11.9998 4.40153 12.2983 4.7 12.6665 4.7Z" stroke="white" stroke-width="1.2" stroke-linecap="round" stroke-linejoin="round"/>
<path d="M3.33317 4.7C3.70136 4.7 3.99984 4.40153 3.99984 4.03334C3.99984 3.66515 3.70136 3.36667 3.33317 3.36667C2.96498 3.36667 2.6665 3.66515 2.6665 4.03334C2.6665 4.40153 2.96498 4.7 3.33317 4.7Z" stroke="white" stroke-width="1.2" stroke-linecap="round" stroke-linejoin="round"/>
<path d="M7.99984 9.36667C8.36803 9.36667 8.6665 9.06819 8.6665 8.7C8.6665 8.33181 8.36803 8.03334 7.99984 8.03334C7.63165 8.03334 7.33317 8.33181 7.33317 8.7C7.33317 9.06819 7.63165 9.36667 7.99984 9.36667Z" stroke="white" stroke-width="1.2" stroke-linecap="round" stroke-linejoin="round"/>
<path d="M12.6665 9.36667C13.0347 9.36667 13.3332 9.06819 13.3332 8.7C13.3332 8.33181 13.0347 8.03334 12.6665 8.03334C12.2983 8.03334 11.9998 8.33181 11.9998 8.7C11.9998 9.06819 12.2983 9.36667 12.6665 9.36667Z" stroke="white" stroke-width="1.2" stroke-linecap="round" stroke-linejoin="round"/>
<path d="M3.33317 9.36667C3.70136 9.36667 3.99984 9.06819 3.99984 8.7C3.99984 8.33181 3.70136 8.03334 3.33317 8.03334C2.96498 8.03334 2.6665 8.33181 2.6665 8.7C2.6665 9.06819 2.96498 9.36667 3.33317 9.36667Z" stroke="white" stroke-width="1.2" stroke-linecap="round" stroke-linejoin="round"/>
<path d="M7.99984 14.0333C8.36803 14.0333 8.6665 13.7349 8.6665 13.3667C8.6665 12.9985 8.36803 12.7 7.99984 12.7C7.63165 12.7 7.33317 12.9985 7.33317 13.3667C7.33317 13.7349 7.63165 14.0333 7.99984 14.0333Z" stroke="white" stroke-width="1.2" stroke-linecap="round" stroke-linejoin="round"/>
<path d="M12.6665 14.0333C13.0347 14.0333 13.3332 13.7349 13.3332 13.3667C13.3332 12.9985 13.0347 12.7 12.6665 12.7C12.2983 12.7 11.9998 12.9985 11.9998 13.3667C11.9998 13.7349 12.2983 14.0333 12.6665 14.0333Z" stroke="white" stroke-width="1.2" stroke-linecap="round" stroke-linejoin="round"/>
<path d="M3.33317 14.0333C3.70136 14.0333 3.99984 13.7349 3.99984 13.3667C3.99984 12.9985 3.70136 12.7 3.33317 12.7C2.96498 12.7 2.6665 12.9985 2.6665 13.3667C2.6665 13.7349 2.96498 14.0333 3.33317 14.0333Z" stroke="white" stroke-width="1.2" stroke-linecap="round" stroke-linejoin="round"/>
</svg>
