<svg width="25" height="25" viewBox="0 0 25 25" fill="none" xmlns="http://www.w3.org/2000/svg">
<g clip-path="url(#clip0_1001_652)">
<path d="M19.0607 0.900391H5.7391C2.79034 0.900391 0.399902 3.29083 0.399902 6.23959V19.5612C0.399902 22.5099 2.79034 24.9004 5.7391 24.9004H19.0607C22.0095 24.9004 24.3999 22.5099 24.3999 19.5612V6.23959C24.3999 3.29083 22.0095 0.900391 19.0607 0.900391Z" fill="white"/>
<path d="M11.6674 21.9119C10.9514 21.6559 10.7978 21.3079 10.5042 19.2687C10.1626 16.8983 10.0882 15.4311 10.2858 14.9663C10.5482 14.3503 11.2602 14.0007 12.2562 13.9967C13.2442 13.9927 13.9626 14.3455 14.2266 14.9663C14.425 15.4303 14.3506 16.8983 14.009 19.2687C13.777 20.9247 13.649 21.3431 13.329 21.6247C12.889 22.0143 12.265 22.1223 11.673 21.9127L11.6674 21.9119ZM8.60903 19.4799C6.13703 18.2639 4.55303 16.2063 3.97703 13.4687C3.83303 12.7623 3.80903 11.0767 3.94503 10.4287C4.30503 8.68875 4.99303 7.32795 6.13703 6.12475C7.78503 4.38715 9.90503 3.46875 12.265 3.46875C14.601 3.46875 16.713 4.37035 18.321 6.05595C19.545 7.32795 20.233 8.67435 20.585 10.4479C20.705 11.0383 20.705 12.6479 20.593 13.3119C20.225 15.4111 19.057 17.3231 17.353 18.6079C16.745 19.0671 15.257 19.8687 15.017 19.8687C14.929 19.8687 14.921 19.7775 14.961 19.4087C15.033 18.8167 15.105 18.6935 15.441 18.5527C15.977 18.3287 16.889 17.6791 17.449 17.1175C18.417 16.1575 19.129 14.9015 19.457 13.5815C19.665 12.7575 19.641 10.9255 19.409 10.0775C18.681 7.38155 16.481 5.28555 13.785 4.72555C13.001 4.56555 11.577 4.56555 10.785 4.72555C8.05702 5.28555 5.80103 7.48555 5.11303 10.2535C4.92903 11.0055 4.92903 12.8375 5.11303 13.5895C5.56903 15.4215 6.75303 17.1015 8.30503 18.1015C8.60903 18.3015 8.97703 18.5095 9.12902 18.5735C9.46502 18.7175 9.53703 18.8375 9.60103 19.4295C9.64103 19.7895 9.63302 19.8935 9.54502 19.8935C9.48903 19.8935 9.08103 19.7175 8.64903 19.5095L8.60903 19.4799ZM8.64103 16.2255C7.80903 15.5615 7.07303 14.3839 6.76903 13.2287C6.58503 12.5311 6.58503 11.2047 6.77703 10.5087C7.28103 8.63035 8.66502 7.17435 10.585 6.49035C11.241 6.25835 12.697 6.20635 13.505 6.38475C16.289 7.00475 18.265 9.79275 17.881 12.5583C17.729 13.6727 17.345 14.5879 16.665 15.4383C16.329 15.8679 15.513 16.5887 15.369 16.5887C15.345 16.5887 15.321 16.3167 15.321 15.9855V15.3807L15.737 14.8847C17.305 13.0063 17.193 10.3823 15.481 8.66075C14.817 7.99035 14.049 7.59675 13.057 7.41515C12.417 7.29675 12.281 7.29675 11.609 7.40715C10.589 7.57355 9.79862 7.96875 9.09702 8.66315C7.37703 10.3671 7.26503 13.0047 8.83303 14.8847L9.24583 15.3807V15.9887C9.24583 16.3247 9.21943 16.5967 9.18663 16.5967C9.15463 16.5967 8.92263 16.4367 8.67463 16.2367L8.64103 16.2255ZM11.417 12.9591C10.705 12.6279 10.321 12.0031 10.313 11.1887C10.313 10.4567 10.721 9.81835 11.425 9.44475C11.873 9.20955 12.665 9.20955 13.113 9.44635C13.601 9.69995 14.001 10.1919 14.153 10.7055C14.617 12.2831 12.945 13.6655 11.433 12.9591H11.417Z" fill="#1C2024"/>
<path d="M12.3912 13.2692C13.4931 13.2692 14.3864 12.3759 14.3864 11.274C14.3864 10.1721 13.4931 9.27881 12.3912 9.27881C11.2893 9.27881 10.396 10.1721 10.396 11.274C10.396 12.3759 11.2893 13.2692 12.3912 13.2692Z" fill="#1C2024"/>
<path d="M12.5828 14.042C12.7212 14.0604 12.9964 14.0964 13.2508 14.178C13.5068 14.258 13.7388 14.3836 13.9196 14.5124C14.0956 14.6404 14.2236 14.7732 14.3036 14.9348C14.3836 15.0964 14.4236 15.2884 14.4476 15.6028C14.4636 15.918 14.4636 16.3548 14.3916 17.1708C14.3196 17.9844 14.1756 19.1772 14.0636 19.9412C13.9516 20.7092 13.8716 21.0452 13.7676 21.2932C13.6636 21.5492 13.5276 21.7172 13.3756 21.8372C13.2236 21.9572 13.0476 22.0292 12.8796 22.0692C12.7116 22.1092 12.5596 22.1092 12.4156 22.1092C12.2716 22.1092 12.1356 22.1092 11.9516 22.0692C11.7676 22.0292 11.5276 21.9572 11.3516 21.8132C11.1676 21.6692 11.0476 21.4612 10.9516 21.1892C10.8556 20.9172 10.7836 20.5892 10.6876 19.9332C10.5916 19.2772 10.4636 18.3012 10.3836 17.5572C10.3036 16.8132 10.2716 16.3012 10.2652 15.9572C10.2572 15.6132 10.2732 15.4428 10.3132 15.2772C10.3532 15.1172 10.4172 14.9652 10.5052 14.8372C10.5932 14.7092 10.7084 14.5972 10.8252 14.5092C10.9396 14.4212 11.0572 14.3572 11.198 14.3076C11.3372 14.2516 11.5044 14.2036 11.71 14.1636C11.918 14.1236 12.158 14.0836 12.2812 14.0676C12.4044 14.0492 12.4044 14.0492 12.542 14.0676L12.5828 14.042Z" fill="#1C2024"/>
</g>
<defs>
<clipPath id="clip0_1001_652">
<rect width="24" height="24" fill="white" transform="translate(0.399902 0.900391)"/>
</clipPath>
</defs>
</svg>
