<svg width="24" height="25" viewBox="0 0 24 25" fill="none" xmlns="http://www.w3.org/2000/svg">
<path d="M20.317 5.05596C18.7873 4.35408 17.147 3.83697 15.4319 3.54079C15.4007 3.53508 15.3695 3.54936 15.3534 3.57793C15.1424 3.95315 14.9087 4.44265 14.7451 4.82739C12.9004 4.55122 11.0652 4.55122 9.25832 4.82739C9.09465 4.43409 8.85248 3.95315 8.64057 3.57793C8.62449 3.55032 8.59328 3.53603 8.56205 3.54079C6.84791 3.83602 5.20756 4.35314 3.67693 5.05596C3.66368 5.06168 3.65233 5.07121 3.64479 5.08358C0.533392 9.73194 -0.31895 14.266 0.0991801 18.7439C0.101072 18.7658 0.11337 18.7868 0.130398 18.8001C2.18321 20.3077 4.17171 21.2229 6.12328 21.8295C6.15451 21.839 6.18761 21.8276 6.20748 21.8019C6.66913 21.1715 7.08064 20.5067 7.43348 19.8077C7.4543 19.7667 7.43442 19.7182 7.39186 19.702C6.73913 19.4544 6.1176 19.1525 5.51973 18.8097C5.47244 18.782 5.46865 18.7144 5.51216 18.682C5.63797 18.5877 5.76382 18.4896 5.88396 18.3906C5.90569 18.3725 5.93598 18.3687 5.96153 18.3801C9.88928 20.1734 14.1415 20.1734 18.023 18.3801C18.0485 18.3678 18.0788 18.3716 18.1015 18.3897C18.2216 18.4887 18.3475 18.5877 18.4742 18.682C18.5177 18.7144 18.5149 18.782 18.4676 18.8097C17.8697 19.1591 17.2482 19.4544 16.5945 19.701C16.552 19.7172 16.533 19.7667 16.5538 19.8077C16.9143 20.5057 17.3258 21.1705 17.7789 21.8009C17.7978 21.8276 17.8319 21.839 17.8631 21.8295C19.8241 21.2229 21.8126 20.3077 23.8654 18.8001C23.8834 18.7868 23.8948 18.7668 23.8967 18.7449C24.3971 13.568 23.0585 9.07103 20.3482 5.08453C20.3416 5.07121 20.3303 5.06168 20.317 5.05596ZM8.02002 16.0174C6.8375 16.0174 5.86313 14.9317 5.86313 13.5984C5.86313 12.2652 6.8186 11.1795 8.02002 11.1795C9.23087 11.1795 10.1958 12.2747 10.1769 13.5984C10.1769 14.9317 9.22141 16.0174 8.02002 16.0174ZM15.9947 16.0174C14.8123 16.0174 13.8379 14.9317 13.8379 13.5984C13.8379 12.2652 14.7933 11.1795 15.9947 11.1795C17.2056 11.1795 18.1705 12.2747 18.1516 13.5984C18.1516 14.9317 17.2056 16.0174 15.9947 16.0174Z" fill="white"/>
</svg>
