<svg width="25" height="25" viewBox="0 0 25 25" fill="none" xmlns="http://www.w3.org/2000/svg">
<g clip-path="url(#clip0_988_43283)">
<path fill-rule="evenodd" clip-rule="evenodd" d="M12.8097 0.900391C6.16855 0.900391 0.799805 6.30872 0.799805 12.9996C0.799805 18.3479 4.23975 22.8752 9.01186 24.4775C9.6085 24.598 9.82704 24.2172 9.82704 23.8968C9.82704 23.6163 9.80737 22.6549 9.80737 21.6531C6.4665 22.3744 5.7708 20.2108 5.7708 20.2108C5.2339 18.8086 4.43838 18.4482 4.43838 18.4482C3.34491 17.707 4.51803 17.707 4.51803 17.707C5.73097 17.7872 6.36743 18.949 6.36743 18.949C7.44099 20.7917 9.17091 20.2711 9.86687 19.9505C9.96618 19.1692 10.2845 18.6284 10.6226 18.328C7.95797 18.0475 5.15449 17.0059 5.15449 12.3584C5.15449 11.0363 5.63141 9.95467 6.3871 9.11343C6.26787 8.81302 5.8502 7.57083 6.50657 5.90826C6.50657 5.90826 7.52064 5.58769 9.80713 7.1502C10.7861 6.88536 11.7956 6.75063 12.8097 6.7495C13.8238 6.7495 14.8575 6.88987 15.8121 7.1502C18.0988 5.58769 19.1129 5.90826 19.1129 5.90826C19.7693 7.57083 19.3514 8.81302 19.2321 9.11343C20.0077 9.95467 20.465 11.0363 20.465 12.3584C20.465 17.0059 17.6615 18.0273 14.977 18.328C15.4146 18.7085 15.7922 19.4296 15.7922 20.5715C15.7922 22.194 15.7725 23.4961 15.7725 23.8966C15.7725 24.2172 15.9913 24.598 16.5877 24.4777C21.3598 22.8749 24.7998 18.3479 24.7998 12.9996C24.8194 6.30872 19.431 0.900391 12.8097 0.900391Z" fill="white"/>
</g>
<defs>
<clipPath id="clip0_988_43283">
<rect width="24" height="24" fill="white" transform="translate(0.799805 0.900391)"/>
</clipPath>
</defs>
</svg>
