<svg width="25" height="25" viewBox="0 0 25 25" fill="none" xmlns="http://www.w3.org/2000/svg">
<g clip-path="url(#clip0_988_43281)">
<path d="M22.6233 0.900391H2.17178C1.19209 0.900391 0.399902 1.67383 0.399902 2.63008V23.166C0.399902 24.1223 1.19209 24.9004 2.17178 24.9004H22.6233C23.603 24.9004 24.3999 24.1223 24.3999 23.1707V2.63008C24.3999 1.67383 23.603 0.900391 22.6233 0.900391ZM7.52021 21.352H3.95772V9.8957H7.52021V21.352ZM5.73897 8.33477C4.59521 8.33477 3.67178 7.41133 3.67178 6.27227C3.67178 5.1332 4.59521 4.20977 5.73897 4.20977C6.87803 4.20977 7.80146 5.1332 7.80146 6.27227C7.80146 7.40664 6.87803 8.33477 5.73897 8.33477ZM20.8515 21.352H17.2937V15.7832C17.2937 14.4566 17.2702 12.7457 15.4421 12.7457C13.5905 12.7457 13.3093 14.1941 13.3093 15.6895V21.352H9.75615V9.8957H13.1687V11.4613H13.2155C13.689 10.5613 14.8515 9.60977 16.5812 9.60977C20.1858 9.60977 20.8515 11.9816 20.8515 15.066V21.352Z" fill="white"/>
</g>
<defs>
<clipPath id="clip0_988_43281">
<rect width="24" height="24" fill="white" transform="translate(0.399902 0.900391)"/>
</clipPath>
</defs>
</svg>
