<svg width="25" height="25" viewBox="0 0 25 25" fill="none" xmlns="http://www.w3.org/2000/svg">
<path d="M12.8481 0.900391C6.24105 0.900391 0.884766 6.25653 0.884766 12.8635C0.884766 19.4708 6.24105 24.8265 12.8481 24.8265C19.4558 24.8265 24.8115 19.4708 24.8115 12.8635C24.8115 6.25696 19.4558 0.900962 12.8479 0.900962L12.8481 0.900391ZM18.3343 18.1547C18.1201 18.5061 17.6601 18.6175 17.3086 18.4018C14.4998 16.6861 10.9638 16.2975 6.79948 17.249C6.39819 17.3404 5.99819 17.089 5.90677 16.6875C5.81491 16.2861 6.06534 15.8861 6.46762 15.7947C11.0248 14.7531 14.9338 15.2018 18.0872 17.129C18.4386 17.3447 18.5501 17.8032 18.3343 18.1547ZM19.7986 14.8968C19.5286 15.3361 18.9543 15.4747 18.5158 15.2047C15.3001 13.2277 10.3982 12.6552 6.59462 13.8098C6.10134 13.9588 5.58034 13.6808 5.43062 13.1884C5.28205 12.6951 5.56019 12.1751 6.05262 12.0251C10.3973 10.7068 15.7986 11.3454 19.4915 13.6147C19.93 13.8847 20.0686 14.4588 19.7986 14.8968ZM19.9243 11.5048C16.0686 9.21468 9.70719 9.0041 6.02591 10.1214C5.43477 10.3007 4.80962 9.96696 4.63048 9.37582C4.45134 8.78439 4.78477 8.15968 5.37634 7.97996C9.60219 6.6971 16.6272 6.94496 21.0663 9.58025C21.5992 9.89582 21.7735 10.5825 21.4578 11.1135C21.1435 11.6452 20.4549 11.8205 19.9249 11.5048H19.9243Z" fill="white"/>
</svg>
