<svg width="25" height="25" viewBox="0 0 25 25" fill="none" xmlns="http://www.w3.org/2000/svg">
<g clip-path="url(#clip0_988_43287)">
<path d="M18.2922 12.0239C18.1888 11.9744 18.0838 11.9267 17.9775 11.881C17.7922 8.46767 15.9271 6.51352 12.7953 6.49352C12.7811 6.49343 12.767 6.49343 12.7528 6.49343C10.8796 6.49343 9.32174 7.293 8.36285 8.74798L10.0852 9.92949C10.8015 8.84268 11.9257 8.61099 12.7537 8.61099C12.7632 8.61099 12.7728 8.61099 12.7823 8.61108C13.8135 8.61765 14.5916 8.91747 15.0952 9.50214C15.4617 9.9278 15.7068 10.516 15.8282 11.2584C14.914 11.103 13.9252 11.0552 12.8682 11.1158C9.89069 11.2873 7.97649 13.0239 8.10505 15.4369C8.17029 16.6609 8.78006 17.7139 9.82197 18.4018C10.7029 18.9833 11.8375 19.2676 13.0166 19.2033C14.5738 19.1179 15.7955 18.5238 16.6477 17.4374C17.295 16.6124 17.7043 15.5433 17.8851 14.1961C18.6272 14.644 19.1772 15.2334 19.481 15.9419C19.9975 17.1463 20.0276 19.1254 18.4127 20.7389C16.9978 22.1524 15.2971 22.7639 12.7268 22.7828C9.87562 22.7616 7.71932 21.8473 6.31736 20.065C5.00453 18.3961 4.32606 15.9856 4.30075 12.9004C4.32606 9.81512 5.00453 7.40459 6.31736 5.73573C7.71932 3.9535 9.87559 3.03914 12.7267 3.01795C15.5986 3.0393 17.7925 3.95807 19.2481 5.74889C19.9618 6.62709 20.5 7.73149 20.8547 9.01918L22.8731 8.48067C22.4431 6.89567 21.7665 5.52985 20.8457 4.39714C18.9796 2.10123 16.2503 0.924784 12.7338 0.900391H12.7197C9.2103 0.924699 6.51161 2.10562 4.69864 4.4103C3.08534 6.46119 2.25315 9.31485 2.22519 12.892L2.2251 12.9004L2.22519 12.9088C2.25315 16.4859 3.08534 19.3396 4.69864 21.3905C6.51161 23.6951 9.2103 24.8761 12.7197 24.9004H12.7338C15.8538 24.8788 18.0531 24.0619 19.8648 22.2518C22.2352 19.8836 22.1638 16.9153 21.3826 15.093C20.8221 13.7863 19.7535 12.7249 18.2922 12.0239ZM12.9052 17.0888C11.6002 17.1623 10.2444 16.5765 10.1775 15.3219C10.128 14.3916 10.8396 13.3536 12.9852 13.23C13.231 13.2158 13.4721 13.2089 13.709 13.2089C14.4883 13.2089 15.2175 13.2846 15.8803 13.4295C15.6331 16.5173 14.1828 17.0186 12.9052 17.0888Z" fill="white"/>
</g>
<defs>
<clipPath id="clip0_988_43287">
<rect width="24" height="24" fill="white" transform="translate(0.600098 0.900391)"/>
</clipPath>
</defs>
</svg>
