<svg width="24" height="25" viewBox="0 0 24 25" fill="none" xmlns="http://www.w3.org/2000/svg">
<path d="M23.7609 8.1002C23.7609 8.1002 23.5266 6.44551 22.8047 5.71895C21.8906 4.7627 20.8688 4.75801 20.4 4.70176C17.0438 4.45801 12.0047 4.45801 12.0047 4.45801H11.9953C11.9953 4.45801 6.95625 4.45801 3.6 4.70176C3.13125 4.75801 2.10938 4.7627 1.19531 5.71895C0.473438 6.44551 0.24375 8.1002 0.24375 8.1002C0.24375 8.1002 0 10.0455 0 11.9861V13.8049C0 15.7455 0.239062 17.6908 0.239062 17.6908C0.239062 17.6908 0.473437 19.3455 1.19062 20.0721C2.10469 21.0283 3.30469 20.9955 3.83906 21.0986C5.76094 21.2814 12 21.3377 12 21.3377C12 21.3377 17.0438 21.3283 20.4 21.0893C20.8688 21.033 21.8906 21.0283 22.8047 20.0721C23.5266 19.3455 23.7609 17.6908 23.7609 17.6908C23.7609 17.6908 24 15.7502 24 13.8049V11.9861C24 10.0455 23.7609 8.1002 23.7609 8.1002ZM9.52031 16.0127V9.26738L16.0031 12.6518L9.52031 16.0127Z" fill="white"/>
</svg>
